<?xml version="1.0" encoding="utf-8" ?><svg xmlns="http://www.w3.org/2000/svg" xmlns:xlink="http://www.w3.org/1999/xlink" width="720" height="720" viewBox="0 0 720 720"><defs><linearGradient id="gradient_0" gradientUnits="userSpaceOnUse" x1="141.62909" y1="398.7605" x2="567.1593" y2="323.04428"><stop offset="0" stop-color="#2299D9"/><stop offset="1" stop-color="#2BCFCD"/></linearGradient></defs><path fill="url(#gradient_0)" d="M270.96 160.816C283.521 160.142 298.032 160.555 310.739 160.631L367.282 160.7L410.659 160.58C419.263 160.566 431.576 160.396 439.827 161.517C449.295 163.258 459.061 167.927 467.292 172.521C483.089 181.336 488.019 195.177 496.544 209.976L523.693 256.347L552.374 305.871C561.348 321.672 570.277 336.12 573.433 354.319C577.317 376.713 561.081 405.064 550.533 423.286L529.52 459.242C518.625 478.155 508.854 497.764 497.594 516.482C480.917 544.206 470.603 553.759 438.672 561.497C428.362 563.956 409.953 563.237 398.992 563.253L342.384 563.017L300.01 562.995C277.686 562.976 257.609 563.646 239.481 548.372C232.838 542.709 226.92 536.247 221.862 529.133C214.692 519.052 208.734 507.819 202.54 497.125C187.164 470.578 170.758 444.643 155.617 417.961C146.876 402.557 137.69 388.428 136.33 370.197C135.373 357.359 136.491 346.827 141.67 334.891C152.124 310.603 167.434 288.39 180.638 265.505L208.352 217.711C213.72 208.454 220.944 194.681 227.715 186.849C238.729 174.109 253.482 162.034 270.96 160.816ZM376.611 552.77L404.011 552.722C425.279 552.639 444.868 552.989 463.052 540.198C466.19 537.991 470.174 536.076 472.89 533.184C481.729 522.71 487.496 509.471 494.335 497.75C500.167 487.756 506.376 478.419 512.243 468.612C520.796 454.008 529.208 439.322 537.479 424.556C543.033 414.7 548.419 405.541 553.032 395.095C554.566 391.621 557.432 386.129 558.57 382.551C561.34 373.839 561.052 361.4 561.235 352.205C561.325 347.703 559.63 341.601 557.735 337.655C550.894 323.411 541.956 309.765 534.193 296.137C519.882 271.011 506.363 245.809 491.069 221.228C483.5 209.062 478.244 197.81 467.237 187.743C460.734 181.795 450.33 174.677 441.881 171.912C438.602 170.839 426.631 170.93 422.678 170.898C412.083 170.808 401.487 170.819 390.892 170.93L332.472 171.036C321.363 171.181 310.252 171.236 299.142 171.203C281.818 171.218 268.635 169.805 253.161 179.31C248.889 181.935 244.029 184.835 240.647 188.643C230.661 199.89 222.891 214.884 215.251 227.773L184.013 280.63C177.25 292.305 169.974 303.64 163.392 315.497C150.511 338.7 140.109 361.903 151.802 388.158C157.821 401.671 163.761 411.642 171.196 424.06L196.245 465.509C204.365 479.187 212.645 493.026 220.285 507.02C226.245 517.935 231.361 526.105 240.571 535.087C250.031 544.312 263.502 548.411 276.158 551.391C285.505 553.119 304.985 552.634 315.31 552.636L376.611 552.77Z"/><path fill="#2BBCCB" d="M378.068 192.48C385.324 192.371 407.757 192.447 414.615 193.538C428.624 196.442 453.873 202.297 464.225 212.267C482.964 230.315 496.529 260.269 509.33 282.603L524.674 309.439C534.567 326.373 544.063 342.015 546.514 362.03C547.148 367.201 543.392 380.271 541.219 385.304C535.218 399.203 526.705 412.417 519.303 425.606C514.993 433.389 510.597 441.125 506.118 448.812C503.379 453.604 499.444 460.976 496.048 465.034C488.295 450.485 476.72 431.742 466.918 418.398C462.825 421.707 458.459 425.716 454.31 428.976C445.708 435.733 427.508 445.88 416.947 448.544C396.444 453.203 365.519 452.57 347.075 441.985C324.399 428.971 307.499 410.788 300.915 385.192C295.789 365.265 294.753 356.049 301.37 336.402C310.99 307.837 332.371 282.842 362.334 275.168C372.699 272.182 383.107 272.705 393.667 272.633C412.221 272.506 425.355 275.726 441.103 286.29C444.529 288.559 447.776 291.087 450.815 293.853C452.696 295.557 458.42 302.101 460.527 301.505C466.204 295.798 472.235 283.371 477.081 276.339C480.514 271.357 487.067 263.369 488.851 258.234C482.952 244.416 458.777 224.027 444.929 217.588C428.347 209.877 403.891 206.536 385.609 206.979C373.051 207.522 359.081 209.273 346.867 212.4C322.081 218.747 291.906 236.577 274.12 254.835C257.555 271.84 245.394 295.608 238.325 317.809C236.09 324.83 235.311 333.263 233.986 340.486C233.132 347.038 230.759 355.529 231.52 362.152C232.771 373.027 234.669 384.718 236.036 395.63C236.809 401.804 240.079 409.518 241.921 415.403C249.758 440.45 266.452 458.899 285.138 476.536C299.982 489.819 317.876 501.892 337 507.936C348.168 511.466 361.965 514.223 373.507 515.97C382.146 517.277 392.57 516.572 401.295 516.533C416.176 516.466 432.684 512.574 446.333 506.709C450.39 504.965 462.859 496.596 465.715 493.548C463.29 487.411 457.879 482.241 453.347 477.476C436.205 488.339 425.803 489.786 406.492 492.884C390.302 495.576 387.624 494.589 371.94 491.723C354.98 488.624 340.513 486.492 325.008 477.582C316.957 473.796 310.276 468.024 303.306 462.907C281.879 447.179 268.786 424.679 261.093 399.563C257.358 387.371 256.441 378.047 256.403 364.914C256.364 351.66 255.872 337.402 259.403 324.279C262.651 313.691 272.056 296.017 278.327 286.775C295.475 261.477 320.778 242.822 350.015 233.922C354.12 232.674 358.281 232.433 362.194 231.555C385.293 226.361 408.299 227.328 430.505 236.237C437.99 239.24 456.536 245.855 461.191 254.181C462.401 256.347 456.293 264.449 454.678 266.879C442.652 260.678 425.752 250.264 412.212 247.931C392.709 244.571 361.749 247.85 343.478 255.591C317.63 267.031 291.733 292.084 281.323 318.268C274.462 335.526 273.023 362.822 275.478 381.066C283.101 437.713 337.836 475.848 392.639 476.785C416.037 477.185 440.975 467.722 460.765 455.668C460.893 455.613 461.02 455.559 461.147 455.504C465.499 460.064 482.256 486.199 482.398 491.906C482.461 494.417 474.57 503.911 472.596 505.999C458.509 520.906 433.917 528.096 414.232 532.037C407.867 533.311 401.733 534.469 395.211 534.647C387.115 534.868 380.655 532.871 372.818 531.754C366.338 530.83 359.828 530.391 353.419 528.984C319.98 521.324 289.207 504.837 264.306 481.241C256.316 473.651 252.729 468.025 246.717 459.216C234.428 441.213 225.044 423.125 220.098 401.771C218.466 394.861 216.393 387.309 216.489 380.157C216.912 362.043 215.509 342.66 218.265 324.744C219.923 313.961 226.311 296.925 231.057 286.949C237.152 274.14 248.02 258.673 257.682 248.329C264.661 240.858 274.216 231.766 282.263 225.596C309.918 204.751 343.444 193.163 378.068 192.48Z"/><defs><linearGradient id="gradient_1" gradientUnits="userSpaceOnUse" x1="165.81375" y1="353.4321" x2="309.92566" y2="361.42624"><stop offset="0" stop-color="#3C9ADA"/><stop offset="1" stop-color="#10B8DB"/></linearGradient></defs><path fill="url(#gradient_1)" d="M288.209 535.437C274.539 535.532 249.662 519.582 241.001 509.128C232.285 498.606 224.276 483.68 217.094 471.903C208.36 457.582 199.866 442.853 192.266 427.886C182.634 410.229 170.386 391.397 165.757 371.669C160.907 351 177.284 324.606 186.65 306.907C198.694 284.143 211.665 261.093 225.597 239.403C233.861 226.536 243.471 212.936 254.15 201.932C261.461 194.81 277.213 187.205 287.152 185.282C289.725 184.784 301.856 183.665 303.832 184.979C303.553 185.928 303.265 186.316 302.385 186.882C296.564 191.343 285.269 194.779 280.023 199.318C272.338 205.966 259.726 214.307 252.967 221.553C240.1 235.346 227.54 251.395 218.758 268.06C214.969 275.25 210.869 281.756 207.755 289.252C201.662 303.225 198.743 317.746 195.433 332.428C191.528 349.753 188.536 365.899 192.808 383.607C193.201 385.618 193.851 387.717 194.215 389.719C198.015 410.625 204.513 430.177 214.736 448.8C225.946 469.224 237.885 489.597 254.962 505.774C257.771 508.434 262.132 510.638 265.195 513.069C271.577 517.796 277.805 522.097 284.562 526.237C286.93 527.688 294.781 532.097 296.416 533.454C299.876 535.072 302.538 536.358 305.532 538.731C299.637 538.383 294.114 536.451 288.209 535.437Z"/><path fill="#1AA0E0" d="M296.416 533.454C299.876 535.072 302.538 536.358 305.532 538.731C299.637 538.383 294.114 536.451 288.209 535.437C292.458 534.886 298.405 537.63 300.414 536.457C300.208 536.077 297.497 534.78 296.416 533.454Z"/></svg>